<svg width="75" height="72" viewBox="0 0 75 72" fill="none" xmlns="http://www.w3.org/2000/svg">
<path fill-rule="evenodd" clip-rule="evenodd" d="M45.656 65.033H29.656V41.21H45.656V65.033ZM42.718 44.134H32.593V62.11H42.718V44.134Z" fill="#81B3D2"/>
<path fill-rule="evenodd" clip-rule="evenodd" d="M72.771 39.253L74.847 37.185L64.939 27.32V0H51.127V13.567L37.5 0L0.151978 37.185L2.22898 39.253L10.061 31.458V69.076H6.12398V72H69.999V69.076H64.94V31.458L72.771 39.253ZM62.002 69.076H12.999V28.534L37.5 4.149L62.002 28.534V69.076ZM54.064 16.492L62.002 24.394V2.924H54.064V16.492Z" fill="#81B3D2"/>
<path fill-rule="evenodd" clip-rule="evenodd" d="M37.656 34.793C33.376 34.793 29.906 31.341 29.906 27.08C29.906 22.821 33.375 19.367 37.656 19.367C41.935 19.367 45.406 22.821 45.406 27.08C45.406 31.341 41.935 34.793 37.656 34.793ZM42.625 27.08C42.625 24.349 40.4 22.135 37.656 22.135C34.911 22.135 32.686 24.349 32.686 27.08C32.686 29.812 34.91 32.028 37.656 32.028C40.4 32.028 42.625 29.812 42.625 27.08ZM17.061 41.21H20.061V45.129H17.061V41.21ZM25.999 41.21H22.999V45.129H25.999V41.21ZM17.061 47.182H20.061V51.101H17.061V47.182ZM25.999 47.182H22.999V51.101H25.999V47.182ZM48.998 41.21H51.998V45.129H48.998V41.21ZM57.936 41.21H54.936V45.129H57.936V41.21ZM48.998 47.182H51.998V51.101H48.998V47.182ZM57.936 47.182H54.936V51.101H57.936V47.182Z" fill="#81B3D2"/>
</svg>
